<svg width="387" height="335" viewBox="0 0 387 335" fill="none" xmlns="http://www.w3.org/2000/svg">
<rect width="387" height="335" fill="white"/>
<path d="M68 142C68 152.185 68 162.37 68 172.556C68 179.545 71.2623 183.352 75.3889 188.556C79.8533 194.185 82.8434 200.258 89 204.556C106.154 216.531 125.766 220.033 146.278 220.944C152.64 221.227 159.804 221.63 163.778 216C166.699 211.862 174.969 207.809 175.944 202.444C176.832 197.564 179.095 194.595 179 188.778C178.846 179.413 171.372 169.732 165.5 162.556C161.468 157.628 159.668 150.779 154 147" stroke="black" stroke-width="3" stroke-linecap="round"/>
<g filter="url(#filter0_d_1_6)">
<ellipse cx="192" cy="86" rx="40" ry="38" fill="#D9D9D9"/>
<path d="M231.5 86C231.5 106.687 213.84 123.5 192 123.5C170.16 123.5 152.5 106.687 152.5 86C152.5 65.3132 170.16 48.5 192 48.5C213.84 48.5 231.5 65.3132 231.5 86Z" stroke="black"/>
</g>

</svg>
